<!DOCTYPE svg PUBLIC "-//W3C//DTD SVG 1.1//EN" "http://www.w3.org/Graphics/SVG/1.1/DTD/svg11.dtd">
<!-- Uploaded to: SVG Repo, www.svgrepo.com, Transformed by: SVG Repo Mixer Tools -->
<svg fill="#e91cd7" height="800px" width="800px" version="1.1" id="Layer_1" xmlns="http://www.w3.org/2000/svg" xmlns:xlink="http://www.w3.org/1999/xlink" viewBox="0 0 512 512" xml:space="preserve" stroke="#e91cd7">
<g id="SVGRepo_bgCarrier" stroke-width="0"/>
<g id="SVGRepo_tracerCarrier" stroke-linecap="round" stroke-linejoin="round"/>
<g id="SVGRepo_iconCarrier"> <g> <g> <path d="M454.735,252.562c-5.692-45.05-24.442-89.809-51.443-122.798c-15.219-18.595-32.981-33.51-52.866-44.593 C345.521,37.394,305.046,0,256,0s-89.521,37.394-94.426,85.171c-19.886,11.083-37.646,26-52.866,44.593 c-27,32.988-45.751,77.747-51.443,122.798l-2.511,19.873l17.899-0.994c-0.032,48.619,11.164,99.571,31.61,142.463 C134.853,478.079,187.322,512,255.996,512s121.143-33.921,151.732-98.097c20.449-42.899,31.647-93.851,31.617-142.462 l17.901,0.994L454.735,252.562z M256,33.391c24.775,0,46.162,14.728,55.909,35.883c-17.539-4.979-36.235-7.529-55.909-7.529 c-19.674,0-38.37,2.551-55.909,7.529C209.838,48.119,231.225,33.391,256,33.391z M377.587,399.536 c-25.01,52.469-65.92,79.073-121.591,79.073s-96.58-26.604-121.591-79.073c-18.559-38.933-28.841-87.155-28.333-131.534 c19.25-3.01,38.278-7.784,56.852-14.3c33.733-11.837,64.981-29.147,93.076-51.541c28.095,22.394,59.343,39.703,93.076,51.541 c18.574,6.517,37.601,11.292,56.851,14.3C406.435,312.373,396.148,360.594,377.587,399.536z M266.965,167.841L256,158.294 l-10.965,9.547c-53.753,46.807-111.847,62.865-150.904,68.116c5.261-22.899,16.521-55.848,40.417-85.043 C164.84,113.902,205.703,95.137,256,95.137s91.161,18.766,121.452,55.777c23.896,29.194,35.155,62.145,40.417,85.043 C378.812,230.706,320.718,214.648,266.965,167.841z"/> </g> </g> <g> <g> <path d="M310.502,378.33c-14.652,14.338-34.008,22.235-54.502,22.235s-39.85-7.897-54.502-22.235l-23.354,23.865 c20.929,20.481,48.58,31.762,77.856,31.762s56.928-11.28,77.856-31.762L310.502,378.33z"/> </g> </g> <g> <g> <circle cx="196.575" cy="308.736" r="19.478"/> </g> </g> <g> <g> <circle cx="315.425" cy="308.736" r="19.478"/> </g> </g> </g>
</svg>